<svg width="800" height="600" viewBox="0 0 800 600" fill="none" xmlns="http://www.w3.org/2000/svg">
  <rect width="800" height="600" fill="#F9F2E7"/>
  
  <g transform="translate(100, 150)">
    <path d="M20 280V100C20 44.7715 64.7715 0 120 0C175.228 0 220 44.7715 220 100V280H20Z" stroke="#34041A" stroke-width="2.5"/>
    <line x1="20" y1="280" x2="220" y2="280" stroke="#34041A" stroke-width="2.5"/>
    <circle cx="10" cy="210" r="4" fill="#34041A"/>
    <circle cx="230" cy="210" r="4" fill="#34041A"/>
    
    <g transform="translate(55, 60)" stroke="#34041A" stroke-width="2" stroke-linecap="round" stroke-linejoin="round">
      <path d="M65 40C65 40 50 10 90 5C130 0 135 45 110 65C85 85 45 75 45 75" />
      <path d="M85 30C95 20 115 25 120 40C125 55 105 75 85 75" />
      <path d="M75 45C80 40 95 40 100 55C105 70 85 85 75 80" />
      <path d="M85 80C85 80 85 150 70 180" />
      <path d="M85 100C60 90 30 110 40 135C50 160 85 140 85 140" fill="none" />
      <path d="M85 120C110 110 140 130 130 155C120 180 85 160 85 160" fill="none" />
      <path d="M78 150C55 160 45 190 65 205C85 220 80 185 80 185" fill="none" />
      <path d="M150 30L153 37L160 40L153 43L150 50L147 43L140 40L147 37L150 30Z" fill="#34041A" stroke="none"/>
      <path d="M170 60L172 65L177 67L172 69L170 74L168 69L163 67L168 65L170 60Z" fill="#34041A" stroke="none"/>
      <path d="M40 190L42 195L47 197L42 199L40 204L38 199L33 197L38 195L40 190Z" fill="#34041A" stroke="none"/>
    </g>
  </g>

  <g transform="translate(380, 260)">
    <text font-family="Serif, 'Times New Roman'" font-weight="bold" font-size="72" fill="#34041A" letter-spacing="2">ROSE IS</text>
    <text x="0" y="85" font-family="Serif, 'Times New Roman'" font-weight="bold" font-size="96" fill="#34041A" letter-spacing="4">ROSE</text>
  </g>
</svg>